<svg width="35" height="35" viewBox="0 0 35 35" fill="none" xmlns="http://www.w3.org/2000/svg">
<path d="M2.91675 2.91667H23.3334C26.0838 2.91667 27.4576 2.91667 28.3122 3.77125C29.1667 4.62583 29.1667 5.99958 29.1667 8.75V17.5C29.1667 20.2504 29.1667 21.6242 28.3122 22.4787C27.4576 23.3333 26.0838 23.3333 23.3334 23.3333H13.1251M14.5834 9.47917H23.3334M2.91675 24.7917V18.9583C2.91675 17.5831 2.91675 16.8963 3.34404 16.469C3.77133 16.0417 4.45821 16.0417 5.83341 16.0417H8.75008M2.91675 24.7917H8.75008M2.91675 24.7917V32.0833M8.75008 16.0417V24.7917M8.75008 16.0417H17.5001M8.75008 24.7917V32.0833" stroke="black" stroke-width="1.75" stroke-linecap="round" stroke-linejoin="round"/>
<path d="M8.75008 9.47917C8.75008 10.2527 8.44279 10.9946 7.89581 11.5416C7.34883 12.0885 6.60696 12.3958 5.83341 12.3958C5.05987 12.3958 4.318 12.0885 3.77102 11.5416C3.22404 10.9946 2.91675 10.2527 2.91675 9.47917C2.91675 8.70562 3.22404 7.96375 3.77102 7.41677C4.318 6.86979 5.05987 6.5625 5.83341 6.5625C6.60696 6.5625 7.34883 6.86979 7.89581 7.41677C8.44279 7.96375 8.75008 8.70562 8.75008 9.47917Z" stroke="black" stroke-width="1.75" stroke-linecap="round" stroke-linejoin="round"/>
</svg>
