<svg width="35" height="35" viewBox="0 0 35 35" fill="none" xmlns="http://www.w3.org/2000/svg">
<path d="M30.9709 7.71231L17.8459 3.33731C17.6214 3.26246 17.3786 3.26246 17.1541 3.33731L4.0291 7.71231C3.81132 7.78491 3.62189 7.92419 3.48767 8.11044C3.35345 8.29668 3.28123 8.52043 3.28125 8.75V19.6875C3.28125 19.9776 3.39648 20.2558 3.6016 20.4609C3.80672 20.666 4.08492 20.7813 4.375 20.7813C4.66508 20.7813 4.94328 20.666 5.1484 20.4609C5.35352 20.2558 5.46875 19.9776 5.46875 19.6875V10.2676L10.0611 11.7975C8.841 13.7687 8.453 16.1435 8.98233 18.4006C9.51167 20.6576 10.9151 22.6123 12.8844 23.8355C10.4234 24.8008 8.29609 26.5467 6.74023 28.9338C6.65932 29.0541 6.60311 29.1892 6.57489 29.3314C6.54666 29.4736 6.54698 29.6199 6.57582 29.762C6.60466 29.904 6.66144 30.0389 6.74288 30.1588C6.82431 30.2787 6.92877 30.3813 7.05018 30.4605C7.17159 30.5397 7.30752 30.5939 7.45009 30.6201C7.59265 30.6463 7.739 30.6439 7.88063 30.613C8.02225 30.5821 8.15633 30.5234 8.27506 30.4403C8.3938 30.3572 8.49482 30.2512 8.57227 30.1287C10.6326 26.9678 13.8865 25.1563 17.5 25.1563C21.1135 25.1563 24.3674 26.9678 26.4277 30.1287C26.5882 30.3671 26.836 30.5329 27.1176 30.59C27.3992 30.6472 27.692 30.5912 27.9327 30.4343C28.1734 30.2773 28.3427 30.0318 28.4039 29.7511C28.4651 29.4703 28.4133 29.1767 28.2598 28.9338C26.7039 26.5467 24.5684 24.8008 22.1156 23.8355C24.083 22.6124 25.4851 20.6589 26.0144 18.4035C26.5436 16.1482 26.1568 13.7749 24.9389 11.8043L30.9709 9.79453C31.1887 9.72197 31.3782 9.5827 31.5125 9.39646C31.6467 9.21021 31.719 8.98644 31.719 8.75684C31.719 8.52724 31.6467 8.30346 31.5125 8.11722C31.3782 7.93097 31.1887 7.7917 30.9709 7.71914V7.71231ZM24.0625 16.4063C24.0628 17.4437 23.8171 18.4665 23.3456 19.3907C22.874 20.3148 22.1901 21.114 21.3499 21.7227C20.5097 22.3313 19.5372 22.7321 18.5121 22.8921C17.487 23.0521 16.4386 22.9668 15.4528 22.6431C14.4671 22.3195 13.5722 21.7667 12.8414 21.0302C12.1107 20.2938 11.565 19.3945 11.2491 18.4063C10.9332 17.418 10.8561 16.369 11.0242 15.3452C11.1922 14.3214 11.6006 13.352 12.2158 12.5166L17.1541 14.1572C17.3786 14.2321 17.6214 14.2321 17.8459 14.1572L22.7842 12.5166C23.6151 13.6432 24.0631 15.0064 24.0625 16.4063ZM17.5 11.9725L7.83398 8.75L17.5 5.52754L27.166 8.75L17.5 11.9725Z" fill="black"/>
</svg>
